<?xml version="1.0" encoding="utf-8"?>
<!-- Generator: Adobe Illustrator 22.0.1, SVG Export Plug-In . SVG Version: 6.00 Build 0)  -->
<svg version="1.1" id="Layer_1" xmlns="http://www.w3.org/2000/svg" xmlns:xlink="http://www.w3.org/1999/xlink" x="0px" y="0px"
	 viewBox="0 0 320.7 217" style="enable-background:new 0 0 320.7 217;" xml:space="preserve">
<style type="text/css">
	.st0{fill:#FFFFFF;}
</style>
<polygon points="20.1,181.8 300.1,181.8 288.8,212.4 33.4,213.2 "/>
<path d="M160.3,86.8c0.1,0,0.1,0,0.2,0c59.7,0,113.5,19.7,140.8,31.8l-25.9-21.5L242,70l-17-29h-15.6L174,0l-11.3,10.3h-19.9
	L125,34.5l-24.8,19.3l-9.2-4L44.2,97.1l-20.3,19.5c28.5-12.1,79.7-29.8,136.2-29.8C160.2,86.8,160.3,86.8,160.3,86.8z M102,69.3
	H79.8l13.3-13.9l9.4,3l9.9,10.9l10.4,12.1L102,69.3z M223.7,48.6l9.6,19.9l-19.3-19.9H223.7z M173.1,8.6l16.8,14.7l8.9,25.2
	L181,23.3l-14.8-10.2L173.1,8.6z M144,14.3l15.8,1.4l9.4,14.2l15.3,11.9l25.2,27.5l-26.2-6.6l-9.4-14.1l-22.7-11.9L144,14.3z"/>
<g>
	<path d="M280.9,217H39.8c-6.9,0-13.1-4.4-15.4-11L0.9,138.8c-2.8-7.9,0.8-16.6,8.4-20.2c22.8-10.8,83.2-36,150.8-36h0.4
		c67.6,0,128,25.2,150.8,36l0,0c7.6,3.6,11.2,12.3,8.4,20.2L296.3,206C294,212.6,287.8,217,280.9,217z M160.2,89.5
		c-66.2,0-125.4,24.7-147.8,35.4c-4.3,2.1-6.4,7-4.8,11.6L31,203.7c1.3,3.8,4.8,6.3,8.8,6.3h241.1c3.9,0,7.5-2.5,8.8-6.3l23.4-67.3
		c1.6-4.6-0.5-9.5-4.8-11.6c-22.4-10.6-81.6-35.4-147.8-35.4l-0.2,0L160.2,89.5z"/>
</g>
<g>
	<path d="M57.7,130.8c0.1,0.7,0.1,1.5,0,2.4c-0.1,1-0.1,2.2,0.1,3.3c0.6,2.5,0.9,5.1,1.1,7.7c0.2,2.2,0.4,4.5,0.8,6.6
		c0.4,2.4,0.7,5,0.8,7.4c0.2,2.3,0.4,4.8,0.8,7.2c0.2,0.6,0.2,1.3,0.4,1.9c0.2,0.8,0.2,1.6-0.1,2.2c-0.3,0.5-0.9,1-1.6,1
		c-0.2,0-0.6,0.1-0.9,0.2c-0.3,0-0.7-0.1-1,0c-0.2,0-0.4,0-0.6,0c-0.6,0-1.2-0.2-1.3-0.8c-0.2-1-0.5-1.9-0.8-2.9
		c-0.7-2.2-1.4-4.2-0.7-6.4c0.3-1.4-0.1-2.8-0.5-4.1c-0.2-0.6-0.4-1.1-0.5-1.7c-0.7-3.3-1-6.8-1.3-10.1c-0.1-1-0.2-2-0.3-3.1
		c-0.1-0.7-0.2-1.3-0.6-1.9c-0.5-1.3-1.3-2-2.1-2c-0.1,0-0.2,0-0.3,0c-1.1,0.2-1.2,1.5-1.2,2.2c-0.1,1.2-0.6,2-1.1,2.9
		c-0.2,0.3-0.4,0.6-0.6,0.9c-0.5,1-0.8,2-1.1,3.1c-0.3,1.3-0.7,2.6-1.4,3.6c-0.6,0.8-1.1,1.1-1.6,1.2c-0.4,0.1-1,0-1.9-1.4
		c-1.7-2.6-3.5-5-5.7-7.8c-0.5-0.8-1.4-1.9-2.6-1.6c-0.2,0-0.4,0.2-0.6,0.3c-1.6,1-1.2,3.2-1,3.9c0.1,0.4,0.1,0.7,0.2,1.1
		c0.4,2.4,0.7,4.7,1.1,7.1c0.2,1.6,0.4,3.1,0.6,4.7c0.2,0.9,0.4,1.7,0.4,1.8c0.3,3.5,1,6.1,0.9,9.1c0.1,0.7,0.1,1.5-0.2,2.1
		c-0.2,1.6-0.7,3.3-1.5,5.4c-2,5-4.4,9-8.9,11.2c-0.8,0.4-1.7,0.8-2.7,1.1c-0.6,0.3-1.1,0.3-1.6,0c-0.4-0.3-0.8-0.8-1.1-1.5
		c-1.2-3.2-1.2-3.3,1.7-5.2c3.5-2.1,7.4-10.3,7.3-17.1c-0.2-1.2-0.4-2.6-0.5-3.9c-0.2-1.8-0.5-3.7-0.8-5.6c0,0,0.1,0,0.1,0
		c-0.3-1.7-0.6-3.3-0.7-5c-0.3-2.3-0.8-4.6-1.3-6.9c-0.9-3.8-1.5-7.7-2-11.6c-0.1-0.5-0.2-1-0.3-1.5c-0.3-2.1,1.5-3.7,3.4-4.2
		c0.1,0,0.2-0.1,0.3-0.1c4.2-0.8,6.4,2,8.5,4.9c1.6,2.2,3.2,4.3,4.8,6.2c0.9,1.2,1.6,1.6,2.3,1.4c0.8-0.1,1.3-1.2,1.7-2.3
		c1.5-3.7,2.9-7.5,4.2-11.5c0.8-2.5,2.8-4.4,5.2-4.9c1-0.2,2.2-0.1,3.1,0.2c0.6,0.2,1.3,0.7,1.4,1.7c0.1,1.8,0.5,3.5,0.9,5.2
		C57.3,128.4,57.5,129.6,57.7,130.8z"/>
	<path d="M80.2,169.5c-2.4,0.1-4.8-1.6-7.2-3.2c-0.4-0.4-0.8-0.8-1.1-1.2c-2.4-4-4.9-8.2-5.4-13.4c-0.1-1.5-0.2-2.7-0.7-3.8
		c-0.7-1.5-0.7-3-0.7-4.5c0.1-0.8,0.1-1.7,0-2.5c-0.5-5.5-0.8-12.6,2.8-18.9c0.7-1.4,1.3-2.2,2.5-2.8c0.8-0.4,1.7-0.8,2.6-1.4
		c1.4-0.9,2.8-1.7,4.4-2c0.1,0,0.3,0,0.4-0.1c5.3-0.5,9.7,2.1,11.9,6.9c4.8,10.6,5.9,22.6,3.5,35.3c-1.3,7.6-4.5,11.1-10.1,11.3
		c-0.5,0-1,0-1.5,0C81.2,169.5,80.7,169.5,80.2,169.5z M78,123.3c-2.3,0.3-4.3,2.2-5.2,4.9c-1.9,5.3-1.8,10.5-1,17.1
		c-0.1,5.3,1.8,10.5,5,14.8c1.2,1.6,2.7,2.5,4.3,2.4c3.4-0.2,6.9-5,7-9.6c0.1-0.9,0.1-1.8,0.1-2.6c0.2-3.5,0.4-7.2-0.3-10.7
		c-0.8-4.6-1.6-9.4-4.5-13.6C82,123.9,80,123,78,123.3z"/>
	<path d="M136.4,95.2c-4.3,3.1-9.8,13.5-10.5,22c0.1,1.7,0,3.3,0,5c0,0.7,0,1.5,0,2.3c0,0.1,0,0.2,0,0.3c0.1,1.6,0.1,3.1,0.2,4.7
		c0.2,2.1,0.2,4.3,0.2,6.4c0,3.8,0.1,6.8,0.2,9.5c0.2,4.7,0.1,8.2-0.4,11.5c-0.9,5.6-3.8,12.2-9.4,12.3c-0.2,0-0.3,0-0.5,0
		c-0.4,0-0.9,0-1.3,0c-0.5,0-0.9,0-1.4,0c-1.7,0-3.5,0-5.2-1.4c-4.7-3.7-7.3-9.9-7.3-17.6c0.1-4.1-0.4-8.5-1.3-13.4
		c0-0.2-0.1-0.4-0.1-0.7c-0.2-1.3-0.4-2.5-0.2-3.6c0.6-2.6,0.2-5.2-0.2-7.5c-0.2-1.2-0.3-2.3-0.4-3.5c-0.1-1,0.1-1.9,0.2-2.9
		c0.2-1.4,0.4-2.8,0.1-4.4c0.8-0.3,1.6-0.6,2.4-0.7c0.8-0.1,1.6,0.1,2.4,0.2c0.9,0.4,1.3,1.2,1.3,2.9c0,0.6,0.1,1.1,0.1,1.7
		c0,0.3,0,0.5,0,0.8c0.7,3.5,0.8,7.3,0.9,10.9c0.1,2.7,0.1,5.5,0.4,8.2c0.2,1.8,0.3,3.7,0.4,5.5c0.1,3.3,0.3,6.6,1.1,10
		c0.5,1.9,1.1,4.1,2.6,5.6c1.2,1.2,2.6,1.8,3.9,1.8c2.4-0.1,4.3-2.2,5.2-5.5c0.5-2,0.5-4,0.6-5.9c0-0.5,0-0.9,0-1.5
		c0.1-3.4,0-6.8-0.2-10.3c-0.2-2.7-0.3-5.5-0.2-8.2c-0.2-1.9-0.7-6.5-0.6-6.7c0.1-7.5-1.3-11.4,2.8-20.5c2.8-6.2,6-11.4,11.5-14.8
		c1.1-0.5,2.1-1.1,3.2-1.7c0.8-0.4,1.3-0.3,1.8-0.1c0.5,0.3,0.7,1.1,0.9,2.2c0.4,2,8.5-0.4,8.3,0.4
		C147.3,89.6,141.4,91.4,136.4,95.2z"/>
	<path d="M158.7,154.4c0.1,2.4,0,5,0,7.4c0,0.7-0.1,1.5-0.1,2.2c0,2.2-0.8,3.5-2.2,3.8c-0.7,0.1-1.2,0.1-1.7,0.1
		c-1.6,0-2.5-0.7-3.3-2.7c-1.2-2.9-2.2-5.9-3.2-8.8c-1.2-3.6-2.5-7.3-4-10.7c-0.5-1.1-0.9-2.5-1.3-3.9c-0.6-2.2-1.3-4.4-2.5-6.2
		c-0.1-0.2-0.2-0.3-0.3-0.5c-0.3-0.6-0.7-1.4-1.4-1.4c-0.2,0-0.3,0.1-0.5,0.1c-1.3,0.6-1.2,2.6-1.1,3.4c0.2,3.1,0.2,6.2,0.3,9.2
		c0,1.4,0,2.8,0,4.2c0.1,1.2,0.2,2.1,0.1,2.2c0,0.3,0,0.5,0,0.8c0,0.6,0,1.2,0,1.7c0,6,0.6,10.1-2.9,18c-2.7,6-5.6,11.1-10.4,14.1
		c-0.9,0.6-1.8,1.1-2.8,1.6c-0.6,0.2-1.2,0.2-1.6-0.1c-0.4-0.3-0.7-1-0.9-2c-0.8-4.3-0.8-4.4,2.4-6.8c3.8-2.9,9.6-13,10.3-21.6
		c0-1.6,0-3.3,0-4.9c0-1.3-0.1-5.4-0.1-9.2c-0.1-2-0.2-3.9-0.1-5.1c0-0.8,0-1.7-0.1-2.5c0,0.1,0.1,0.2,0.1,0.2c0-4.8-0.2-8-0.3-13.1
		c-0.1-2.2-0.2-4.4-0.4-6.4c0-0.9-0.1-1.8-0.2-2.6c-0.2-3,0.4-4,2.7-4.7c0.3,0,0.7-0.1,1-0.2c2.4-0.1,4.4,1.8,5.4,5
		c1.2,4,2.7,7.9,4.2,11.6c1.6,3.9,3.1,8,4.3,12.2c0.3,1.3,1.1,4,2.8,4c0.1,0,0.2,0,0.3,0c1.6-0.4,1.6-2.4,1.6-3.8c0-0.4,0-0.8,0-1.3
		c0.4-4.6,0.4-9.3,0.1-13.2c-0.2-1.6-0.1-3.1,0.1-4.7c0.2-2.1,0.3-4.2-0.2-6.4c-0.2-0.9,0.1-1.7,0.3-2.2c0.5-0.9,1.5-1.6,2.5-1.7
		c0.1,0,0.1,0,0.2,0c1.6,0,2.8,1.4,2.9,3.4c0.1,1.4,0.1,2.8,0.1,4.3c0,0.8-0.1,1.6-0.1,2.5c-0.2,2.4-0.2,5.1-0.1,8
		c0.1,1.9,0.1,3.8,0.1,5.8C158.3,141.1,158.4,147.9,158.7,154.4z"/>
	<path d="M175.2,168.7c-1.3-0.1-2.2-0.5-2.7-1.3c-0.3-0.7-0.5-1.7-0.2-3.2c0.5-2.9,0.4-5.8,0.3-8.5c-0.1-1.5,0-3.1,0-4.6
		c0-1,0-1.9,0.1-2.9c0.2-3.3,0.2-6.7,0.3-10.1c0.1-2.8-0.1-5.7-0.2-8.3c0-0.4,0-0.8-0.1-1.3c0-0.2,0-0.3,0-0.5c0-0.5-0.1-0.8,0-1.3
		c0.3-2.3,0.1-4.3-0.7-5.7c-0.7-1.5-2.1-2.5-3.9-2.9c-1.6-0.4-2.6-0.9-3.1-1.8c-0.4-0.9-0.4-2.2-0.1-4.3c0.3-1.3,0.9-2.1,1.9-2
		c1,0.1,1.8,0.2,2.7,0.3c1.9,0.2,3.9,0.4,5.9,0.4c2.1,0.1,3.9,0.1,5.6-0.2c0.4-0.1,0.9-0.1,1.4,0c1.4,0.1,2.9,0.5,4.8,1.3
		c1.5,0.7,1.5,2.5,1.1,5c-0.1,1.6-0.8,2.2-2.4,2.3c-3.3-0.1-6.4,0.9-6.5,8.1c-0.1,10.3-0.4,20.9-0.8,31c-0.1,2-0.1,4.1-0.2,6.1
		C178.6,167.5,177.6,168.8,175.2,168.7z"/>
	<path d="M219.2,165.8c0,1.6-0.1,2.6-0.5,3c-0.4,0.5-1.2,0.7-2.7,0.7c-0.2,0-0.3,0-0.5,0c-1.5-0.2-2.3-1.2-2.7-3.2
		c-0.9-3.9-3.9-6.8-7.4-7.2c-1.8-0.1-3.5,0.4-4.9,1.6c-0.2,0.2-0.4,0.4-0.5,0.5c-2.4,4-2.6,11.3-8.3,18.1c-3.9,4.7-7.8,8.4-13.2,9.4
		c-1,0.2-2,0.3-3,0.3c-0.7,0.1-1.2-0.1-1.5-0.6c-0.3-0.5-0.4-1.3-0.3-2.4c0.3-4.4,0.3-4.5,4-5.6c4.3-1.3,11.5-9,14.3-16.6
		c0.4-1.6,0.9-3.2,1.3-4.6c0.6-2.3,1.3-4.4,1.7-6.6c1.2-5.3,2.5-10.5,3.9-15.6c0.5-2,1-3.9,1.5-5.8c0.6-2,1.1-4,1.8-6.1
		c0.9-3.2,1.9-6.6,2.8-9.9c0.2-1.2,0.9-1.9,1.8-2.3c1.3-0.4,2.6-0.6,3.9-0.5c0.5,0.1,1,0.3,1.5,0.4c1.4,0.6,2.2,1.6,2.5,3.3
		c0.9,7.5,1.9,16,2.6,24.5c0,0.1,0,0.2,0,0.3c0.4,4.7,0.7,9.4,1.5,14.1C218.9,158.2,219.1,161.7,219.2,165.8z M211.2,147.4
		c-0.2-1.3-0.2-2.7-0.3-4c-0.1-2.3-0.3-4.9-0.7-7.3c0-0.2-0.1-0.3-0.1-0.5c-0.1-1-0.4-2.4-1.5-2.6c-0.1,0-0.1,0-0.2,0
		c-1-0.2-1.9,0.6-2.5,2.2c-1.5,3.5-2.2,6.5-2.5,9.5c-0.4,4.4-0.1,5.8,2.6,6.7c0.2,0,0.3,0.1,0.5,0.1c1.4,0.1,3.2-0.8,4.1-2.1
		C211.1,148.7,211.3,148.1,211.2,147.4z"/>
	<path d="M229.9,170.5c-2.8-0.3-3-2.3-2.8-3.8c-0.4-3-0.1-6.1,0.2-9.3c0.2-1.4,0.3-2.9,0.5-4.3c0-0.5,0-1,0-1.5
		c0.4-5.2,0.7-10.6,1.5-15.8c0.7-4.5,1.4-9.8,1.2-15.1c0-1.3,0.5-2.8,1.3-3.8c0.6-0.8,1.3-1.2,2-1.2c0.1,0,0.2,0,0.3,0.1
		c2,0.3,3.2,2.6,3,5.3c-0.4,4.3-0.8,8.8-1.3,13.2c-0.7,7.1-1.3,14.2-2,21.3c-0.1,1.2-0.1,2.3-0.3,3.5c-0.2,2.7-0.4,5.5-0.9,8.3
		c-0.3,2.2-1.1,3.1-2.7,3.1C230.1,170.5,230,170.5,229.9,170.5z"/>
	<path d="M267.3,160.4c-0.2,2-0.6,4.1-0.9,6.1c-0.1,0.6-0.2,1.2-0.3,1.8c-0.3,1.8-1.2,2.8-2.6,3c-0.7,0.1-1.2,0-1.7,0
		c-1.6-0.1-2.4-0.7-2.9-2.5c-0.8-2.5-1.5-5.2-2.1-7.8c-0.8-3.2-1.6-6.5-2.7-9.7c-0.4-1.1-0.6-2.3-0.8-3.6c-0.4-2-0.8-4-1.8-5.8
		c-0.1-0.1-0.1-0.3-0.2-0.4c-0.2-0.5-0.5-1.3-1.2-1.4c-0.2,0-0.3,0.1-0.5,0c-1.4,0.3-1.5,2.1-1.5,2.8c-0.1,2.8-0.5,5.5-0.8,8.2
		c-0.1,1.2-0.4,2.5-0.5,3.7c0,1,0,1.9-0.1,2c0,0.2-0.1,0.5-0.1,0.7c-0.1,0.5-0.1,1-0.3,1.5c-0.7,5.3-0.6,9-5,15.9
		c-3.4,5.3-6.9,9.8-12.1,12.6c-0.9,0.5-1.9,1.1-3,1.5c-0.7,0.2-1.2,0.2-1.6-0.1c-0.4-0.3-0.6-1-0.6-1.9c-0.3-4.1-0.2-4.2,3.3-6.4
		c4.1-2.7,11.2-11.7,12.9-19.3c0.2-1.5,0.4-3,0.6-4.5c0.2-1.1,0.6-4.9,1-8.3c0.1-1.8,0.3-3.6,0.5-4.6c0.1-0.8,0.2-1.5,0.2-2.3
		c0,0.1,0,0.1,0.1,0.2c0.6-4.4,0.8-7.3,1.3-11.9c0.2-2,0.3-4,0.4-5.9c0.1-0.8,0.1-1.7,0.2-2.4c0.2-2.7,0.9-3.6,3.2-3.7
		c0.3,0.1,0.7,0,1,0.1c2.4,0.5,4.1,2.6,4.7,5.6c0.7,3.8,1.7,7.5,2.8,10.9c1.1,3.7,2.2,7.5,2.8,11.2c0.2,1.1,0.6,3.6,2.3,3.8
		c0.1,0,0.2,0,0.3,0c1.6-0.1,1.8-1.8,2-3c0-0.4,0.1-0.7,0.1-1.1c0.9-3.8,1.5-7.7,1.6-11.1c0-1.4,0.3-2.7,0.6-4
		c0.4-1.7,0.8-3.4,0.5-5.4c-0.1-0.8,0.3-1.4,0.5-1.8c0.6-0.7,1.6-1,2.7-0.9c0.1,0,0.1,0,0.2,0c1.5,0.4,2.5,1.8,2.4,3.4
		c-0.1,1.2-0.2,2.3-0.4,3.6c-0.1,0.7-0.3,1.3-0.4,2.1c-0.5,2-0.8,4.2-1,6.6c-0.1,1.5-0.4,3.2-0.6,4.8
		C268.4,149.3,267.7,155,267.3,160.4z"/>
	<path d="M283.2,173c-4.3-0.3-7.4-3.2-9.5-5.8c-1.1-1.2-1.3-2.5-0.9-4.1c0.3-1,1.1-1.7,2.3-1.8c0.4,0,0.7,0,1,0
		c1,0.1,1.6,0.7,2.2,1.6c1.1,2.3,3.3,3.7,5.8,3.9c1.5,0.2,3.1-0.1,4.4-0.9c1.4-0.7,2.4-1.9,2.8-3.3c0.5-1.4,0.3-3-0.5-4.5
		c-1.5-2.5-3.7-4.3-5.9-6c-0.9-0.8-1.9-1.6-2.8-2.3c-2.6-2.4-4.9-5-5.2-9.3c-0.4-4.3,0.8-7.9,3.4-10.7c1.5-1.6,3.2-2.3,5.1-2.2
		c2.2,0.2,4.1,0.5,5.9,1c0.6,0.2,1.2,0.3,1.8,0.5c3.2,1.2,5.1,3.8,7,6.3c0.6,1,1.1,2.4,0.2,3.5c-0.8,0.9-2.2,1.9-4.1,1.5
		c-0.2,0-0.3,0-0.3,0c-0.6-0.1-1-0.6-1.5-1.4c-1-1.3-1.7-2.4-2.5-3.5c-0.9-1-1.8-1.7-2.9-1.9c-1.3-0.3-2.6,0-3.8,0.9
		c-2,1.6-2.4,4.7-0.9,7.1c1.9,3.1,4.8,5.3,7.2,7.1c4,2.8,7.5,7.5,6.4,12.2c-0.7,3.4-1.4,6.3-4.1,8.4c-2.3,1.9-5.2,3-8.6,3.3
		C284.5,173.1,283.8,173.1,283.2,173z"/>
</g>
<g>
	<path class="st0" d="M50,193.6c1.9,0,3.4,0.9,4.1,2.3l-2.2,1.6c-0.3-1-1.2-1.3-1.9-1.3c-1.5,0-2.1,1.5-2.1,2.8
		c0,1.5,0.8,2.8,2.1,2.8c0.7,0,1.5-0.3,1.8-1.3l2.4,1.4c-0.6,1.6-2.6,2.5-4.3,2.5c-3,0-5.1-2.8-5.1-5.5
		C44.9,196.3,46.8,193.6,50,193.6z"/>
	<path class="st0" d="M62.1,198.9c0-2.8,2.2-5.4,5.1-5.4c3.1,0,5.1,2.7,5.1,5.4c0,2.8-2.1,5.4-5.1,5.4
		C64.1,204.4,62.1,201.7,62.1,198.9z M67.2,201.8c1.5,0,2.1-1.4,2.1-2.8c0-1.4-0.7-2.8-2.1-2.8c-1.5,0-2.1,1.4-2.1,2.8
		C65.1,200.4,65.7,201.8,67.2,201.8z"/>
	<path class="st0" d="M81.1,204.3v-10.6h7.3v2.5H84v1.8h3.6v2.4H84v4H81.1z"/>
	<path class="st0" d="M96.9,204.3v-10.6h7.3v2.5h-4.4v1.8h3.6v2.4h-3.6v4H96.9z"/>
	<path class="st0" d="M120.4,201.7v2.5h-7.6v-10.6h7.5v2.5h-4.5v1.5h3.9v2.4h-3.9v1.7H120.4z"/>
	<path class="st0" d="M136.9,201.7v2.5h-7.6v-10.6h7.5v2.5h-4.5v1.5h3.9v2.4h-3.9v1.7H136.9z"/>
	<path class="st0" d="M161.2,193.6c1.9,0,3.4,0.9,4.1,2.3l-2.2,1.6c-0.3-1-1.2-1.3-1.9-1.3c-1.5,0-2.1,1.5-2.1,2.8
		c0,1.5,0.8,2.8,2.1,2.8c0.7,0,1.5-0.3,1.8-1.3l2.4,1.4c-0.6,1.6-2.6,2.5-4.3,2.5c-3,0-5.1-2.8-5.1-5.5
		C156,196.3,157.9,193.6,161.2,193.6z"/>
	<path class="st0" d="M173.2,198.9c0-2.8,2.2-5.4,5.1-5.4c3.1,0,5.1,2.7,5.1,5.4c0,2.8-2.1,5.4-5.1,5.4
		C175.3,204.4,173.2,201.7,173.2,198.9z M178.4,201.8c1.5,0,2.1-1.4,2.1-2.8c0-1.4-0.7-2.8-2.1-2.8c-1.5,0-2.1,1.4-2.1,2.8
		C176.2,200.4,176.9,201.8,178.4,201.8z"/>
	<path class="st0" d="M200.3,204.3v-5.6l-1.8,3.9h-1.6l-1.8-3.9v5.6h-2.9v-10.6h3.2l2.3,5l2.3-5h3.2v10.6H200.3z"/>
	<path class="st0" d="M212.5,204.3v-10.6h4.6c2.1,0,3.6,1.9,3.6,3.7c0,1.9-1.4,3.7-3.5,3.7h-1.7v3.3H212.5z M215.5,198.4h1.5
		c0.4,0,0.7-0.3,0.7-1.1c0-0.9-0.4-1.1-0.8-1.1h-1.5V198.4z"/>
	<path class="st0" d="M227.5,204.3l4-10.6h2.4l4,10.6h-3.1l-0.6-2.1h-2.8l-0.6,2.1H227.5z M232.6,196.7l-1,3.6h1.9L232.6,196.7z"/>
	<path class="st0" d="M249,199v5.2h-2.9v-10.6h2.3l4.3,5.4v-5.4h2.9v10.6h-2.3L249,199z"/>
	<path class="st0" d="M266.9,193.6l1.9,4.6l2-4.6h3.2l-3.7,7.1v3.5h-2.9v-3.6l-3.6-7.1H266.9z"/>
</g>
<rect x="21.6" y="180.4" width="277.6" height="3.1"/>
</svg>
